HIERARCHY
ROOT Hips
{
  OFFSET -321.813 95.2581 -289.396
  CHANNELS 6 Xposition Yposition Zposition Zrotation Xrotation Yrotation
  JOINT ToSpine
  {
    OFFSET -2.69724 7.43032 -0.144315
    CHANNELS 3 Zrotation Xrotation Yrotation
    JOINT Spine
    {
      OFFSET -0.0310711 10.7595 1.96963
      CHANNELS 3 Zrotation Xrotation Yrotation
      JOINT Spine1
      {
        OFFSET 13.1342 3.43533 0.764692
        CHANNELS 3 Zrotation Xrotation Yrotation
        JOINT Neck
        {
          OFFSET 29.8703 7.82586 -0.130764
          CHANNELS 3 Zrotation Xrotation Yrotation
          JOINT Head
          {
            OFFSET 9.52751 0.295786 -0.907742
            CHANNELS 3 Zrotation Xrotation Yrotation
            End Site
            {
              OFFSET 16.4037 0.713936 2.7358
            }
          }
        }
        JOINT LeftShoulder
        {
          OFFSET 27.5574 4.95586 2.47156
          CHANNELS 3 Zrotation Xrotation Yrotation
          JOINT LeftArm
          {
            OFFSET 1.20734 -0.998971 20.1238
            CHANNELS 3 Zrotation Xrotation Yrotation
            JOINT LeftForeArm
            {
              OFFSET 26.8049 -0.0536703 -0.155908
              CHANNELS 3 Zrotation Xrotation Yrotation
              JOINT LeftHand
              {
                OFFSET 26.6817 0 0.320147
                CHANNELS 3 Zrotation Xrotation Yrotation
                End Site
                {
                  OFFSET 18.6119 0 0.382219
                }
              }
            }
          }
        }
        JOINT RightShoulder
        {
          OFFSET 27.5927 4.71444 -2.65209
          CHANNELS 3 Zrotation Xrotation Yrotation
          JOINT RightArm
          {
            OFFSET 2.83739 -1.17114 -18.7564
            CHANNELS 3 Zrotation Xrotation Yrotation
            JOINT RightForeArm
            {
              OFFSET 28.839 -0.0548439 1.22491
              CHANNELS 3 Zrotation Xrotation Yrotation
              JOINT RightHand
              {
                OFFSET 26.5114 0 -0.101894
                CHANNELS 3 Zrotation Xrotation Yrotation
                End Site
                {
                  OFFSET 18.2168 0 0
                }
              }
            }
          }
        }
      }
    }
  }
  JOINT LeftUpLeg
  {
    OFFSET -4.76168 -1.9167 -10.2353
    CHANNELS 3 Zrotation Xrotation Yrotation
    JOINT LeftLeg
    {
      OFFSET 2.55951 -42.0585 -8.02213
      CHANNELS 3 Zrotation Xrotation Yrotation
      JOINT LeftFoot
      {
        OFFSET 3.16357 -42.5282 -3.95426
        CHANNELS 3 Zrotation Xrotation Yrotation
        JOINT LeftToeBase
        {
          OFFSET 0.346054 -6.02161 12.8035
          CHANNELS 3 Zrotation Xrotation Yrotation
          End Site
          {
            OFFSET 0.134235 -1.35082 5.13018
          }
        }
      }
    }
  }
  JOINT RightUpLeg
  {
    OFFSET -4.94151 -1.41743 10.6446
    CHANNELS 3 Zrotation Xrotation Yrotation
    JOINT RightLeg
    {
      OFFSET -2.56294 -42.0364 -7.94377
      CHANNELS 3 Zrotation Xrotation Yrotation
      JOINT RightFoot
      {
        OFFSET -3.0952 -42.555 -4.02241
        CHANNELS 3 Zrotation Xrotation Yrotation
        JOINT RightToeBase
        {
          OFFSET -0.0828122 -6.13587 12.8035
          CHANNELS 3 Zrotation Xrotation Yrotation
          End Site
          {
            OFFSET -0.131328 -1.35082 5.13018
          }
        }
      }
    }
  }
}
MOTION
Frames:	18
Frame Time:	0.0333333
360.514 95.1748 238.271 69.1743 -43.5454 -15.294 -70.1915 0 88.8779 91.4508 72.5518 -1.48457 3.50564 22.2726 1.0765 -150.709 22.5349 175.741 -152.146 62.0624 -167.897 -0.34014 -15.8846 -35.018 -80.8764 45.729 -76.4723 10.6072 13.5323 -38.2885 0.420957 0.000575564 0.35866 -2.23765 7.08492 45.8723 -63.1429 -29.0271 98.6676 6.22362 -11.871 28.1284 0.58676 0.000331095 0.0646654 -37.514 5.2661 96.3209 -4.1454 52.4643 -6.33072 -4.92525 1.35569 0.710203 12.5315 -23.4676 18.7384 -48.8303 5.26018 86.6191 1.88472 44.5929 -1.97361 -6.54028 -12.4086 1.25551 1.76696 -12.3282 -4.88691 
358.258 95.8944 236.487 69.064 -43.0027 -15.2644 -70.1915 0 88.8779 87.598 72.0811 2.51682 3.6403 21.8103 1.44309 -149.835 22.5246 175.893 -151.994 61.9905 -168.357 -0.45999 -16.3368 -35.1683 -81.3442 45.3592 -76.1043 12.9043 15.1455 -40.8187 0.420957 0.000575564 0.35866 -2.13066 6.68013 46.2304 -62.0502 -30.0519 94.7823 5.91194 -13.1585 26.6312 0.58676 0.000331095 0.0646654 -39.9246 5.71144 98.2831 -3.92471 58.7544 3.00354 -0.977253 -4.48146 -0.353761 6.43168 -14.2704 6.18676 -47.6694 5.23142 86.3963 1.66784 42.9196 -2.48396 -5.26145 -11.4512 1.19693 1.00013 -6.68099 -1.91893 
356.003 96.4757 234.704 69.0638 -42.5983 -15.4098 -70.1915 0 88.8779 82.441 71.1056 7.17624 4.59842 20.8416 1.67674 -149.874 22.1061 176.581 -152.614 61.5425 -168.263 -0.336329 -15.9601 -34.6085 -82.4914 45.2114 -75.4818 14.6427 15.639 -43.6486 0.420957 0.000575564 0.35866 -2.24772 7.03987 46.2099 -63.6465 -31.2852 90.3844 4.82308 -15.47 25.0544 0.58676 0.000331095 0.0646654 -43.9172 4.50008 98.0339 -6.04955 62.7775 -1.23809 -2.05715 -0.622314 0.115635 9.00823 -18.7221 17.2424 -46.9211 5.0689 86.0093 1.60745 40.4254 -1.35674 -6.14855 -8.85468 1.15904 1.15432 -5.29666 -4.48339 
353.83 96.5008 232.8 68.8546 -42.0083 -15.1728 -70.1915 0 88.8779 79.3463 70.1996 10.0881 4.74523 19.9029 2.48249 -150.045 21.8107 176.719 -151.101 61.0932 -169.716 -0.348376 -16.0426 -34.4664 -84.0236 44.8388 -74.2488 14.204 13.6423 -46.5707 0.420957 0.000575564 0.35866 -2.17723 6.96417 45.5822 -68.977 -32.3212 84.1844 4.00383 -20.3901 23.5186 0.58676 0.000331095 0.0646654 -48.1731 4.90303 98.9068 -7.10442 65.7725 -0.0568799 -2.57331 -2.79936 -0.0396783 4.94866 -12.1077 10.1153 -45.5084 4.94578 85.246 1.65887 39.0962 -0.162081 -5.28441 -7.04768 1.05535 1.27044 -5.13183 -5.58156 
351.647 96.2735 230.818 67.554 -41.2515 -16.0517 -70.1915 0 88.8779 73.3934 68.4081 16.3898 6.30231 18.9577 0.511886 -150.137 20.1259 172.632 -144.382 58.6421 -176.728 0.0115461 -14.9953 -32.056 -82.8093 45.3362 -75.9007 12.235 11.0002 -48.2375 0.420957 0.000575564 0.35866 -2.21204 6.36168 48.9939 -71.2663 -29.4601 79.6362 3.58491 -22.5572 22.8845 0.58676 0.000331095 0.0646654 -52.0361 3.83595 98.7216 -8.009 66.0583 -3.2316 -2.27744 -1.80672 0.0268315 5.48826 -13.2934 12.8995 -42.5929 4.36412 84.3056 1.50438 38.4903 -0.850801 -5.83659 -6.06898 1.06666 0.68155 -3.74725 -1.84148 
349.018 95.0341 228.311 66.5805 -40.7682 -15.722 -70.1915 0 88.8779 71.6446 67.406 18.3941 6.72437 18.0865 1.67006 -151.361 19.8197 173.1 -144.372 58.183 -177.475 -0.0583078 -15.2657 -32.2934 -83.094 44.3812 -76.3295 10.9479 9.18093 -50.0811 0.420957 0.000575564 0.35866 -2.13086 6.17976 48.7468 -78.1655 -27.4616 74.0454 2.64409 -27.4927 21.2876 0.58676 0.000331095 0.0646654 -54.7494 1.75096 95.6816 -7.24263 66.1836 0.231057 -1.53793 -1.23458 -0.00464674 10.6754 -21.9023 3.98608 -37.7499 4.8553 83.5663 1.74763 41.4065 -0.751106 -6.72993 -5.5982 1.12651 0.930908 -3.67879 -3.7971 
346.957 95.0607 226.648 66.2718 -40.26 -17.3463 -70.1915 0 88.8779 68.7274 67.2268 18.5797 6.11496 17.1525 2.64574 -153.15 19.3744 173.053 -144.458 57.6212 -178.137 -0.0173485 -15.1387 -32.009 -85.5515 43.3421 -75.5312 14.0859 10.8609 -52.6156 0.420957 0.000575564 0.35866 -2.08979 5.97598 49.2306 -81.2533 -25.2112 70.7719 2.93661 -29.1358 21.069 0.58676 0.000331095 0.0646654 -61.8636 5.4816 103.474 -7.00013 59.741 -12.5673 -1.29234 0.62223 0.132029 12.6084 -26.1568 -1.00327 -36.2096 3.5186 84.2322 1.74311 40.4558 0.407197 -5.7746 -5.40639 1.04356 0.78288 -0.405082 -4.67341 
344.219 93.9244 224.183 65.7908 -39.4543 -17.5292 -70.1915 0 88.8779 66.6916 66.3771 19.8266 6.72892 16.3883 2.96139 -153.947 19.1264 172.843 -144.193 57.2588 -178.765 -0.118885 -15.6391 -31.8766 -86.0761 41.5439 -76.5153 17.8692 13.6857 -53.2045 0.420957 0.000575564 0.35866 -2.15141 6.06681 49.6756 -84.1707 -23.5782 68.5447 1.86902 -28.151 20.1942 0.58676 0.000331095 0.0646654 -64.9322 2.21995 99.2614 -5.63661 55.0264 -12.3889 -3.34425 -1.33537 0.198688 9.45932 -20.1075 -6.73907 -32.3726 3.03348 83.5131 1.74393 41.7091 -0.246838 -6.01678 -4.39061 1.03779 0.476441 0.534564 -3.28872 
340.747 92.5865 220.818 66.4572 -39.0503 -15.6035 -70.1915 0 88.8779 71.3333 66.4162 15.5761 6.6232 15.8581 3.64733 -153.6 18.9832 172.631 -144.732 57.3712 -177.16 -0.277528 -16.3498 -31.9697 -86.1733 40.0139 -77.8371 16.1159 13.3523 -50.872 0.420957 0.000575564 0.35866 -2.17682 6.08856 49.9425 -85.4676 -23.1913 67.4191 1.61159 -26.566 20.1303 0.58676 0.000331095 0.0646654 -66.7551 3.17342 98.2965 -4.14678 52.3248 -5.92871 -4.72105 -8.97718 -0.560684 7.71211 -11.7508 -34.4916 -29.255 3.19407 81.6895 1.80027 42.085 -0.251316 -6.15426 -2.4819 1.00429 0.295857 2.19683 -3.12977 
337.309 92.335 217.465 66.6418 -37.6395 -15.8558 -70.1915 0 88.8779 72.4459 66.6386 12.4424 5.8042 15.6579 4.23989 -152.592 18.9827 170.282 -141.964 56.9348 -179.832 -0.390574 -16.8511 -32.0373 -84.6589 38.5932 -81.5099 14.73 13.7156 -47.4957 0.420957 0.000575564 0.35866 -2.16342 6.03815 50.0197 -84.9016 -24.6766 67.6054 2.06464 -22.7571 21.0942 0.58676 0.000331095 0.0646654 -66.8151 0.775145 96.0884 -5.62392 48.9937 -27.255 0.940404 0.51706 -0.17492 17.9337 -30.2005 20.1253 -27.7455 1.59137 81.024 1.48909 38.1064 -0.316391 -7.34318 2.46657 1.065 -0.421917 1.99445 0.949458 
333.283 92.3229 213.348 66.3899 -36.3612 -16.5341 -70.1915 0 88.8779 73.695 66.8539 9.44475 5.57661 15.8033 4.08199 -151.039 18.7024 167.401 -140.412 56.6638 179.607 -0.494623 -17.5668 -31.2831 -84.5048 38.112 -84.3295 15.2293 14.5766 -46.7835 0.420957 0.000575564 0.35866 -2.16708 5.75967 51.7028 -80.1756 -25.8817 71.1165 1.86574 -16.1655 22.4251 0.58676 0.000331095 0.0646654 -64.18 -0.784082 95.6063 -4.65579 47.7974 -17.2607 3.13219 -9.73795 -0.996259 10.7492 -22.5096 -1.37249 -27.0593 0.587083 82.5353 1.39862 30.7652 0.0700249 -4.17977 9.50132 0.303017 -1.14315 5.09019 2.52711 
329.314 92.8109 209.206 65.7002 -36.4439 -18.4703 -70.1915 0 88.8779 73.4063 67.5147 7.67735 5.98069 16.5088 3.75636 -151.002 18.2278 165.844 -140.564 56.3056 179.81 -0.399444 -17.303 -30.6899 -83.6836 37.5713 -86.9702 13.7737 14.5805 -43.7971 0.420957 0.000575564 0.35866 -2.17452 5.61815 52.6985 -74.0519 -27.3216 76.2179 2.07663 -9.04018 24.5193 0.58676 0.000331095 0.0646654 -61.3383 -2.90128 97.2198 -3.70892 45.8233 -10.7328 2.69041 -18.8385 -1.50095 5.62359 -8.91888 -15.3645 -28.0273 -0.968193 84.0367 2.70112 20.5905 3.84318 2.26364 19.7697 -2.03406 0.385347 7.1311 -5.56494 
325.855 93.7355 205.659 65.1219 -36.8854 -19.923 -70.1915 0 88.8779 75.4209 68.1649 4.8537 4.62931 17.1294 3.30097 -150.162 17.8598 165.739 -138.765 55.6228 178.542 -0.459867 -17.6669 -30.4832 -80.9364 37.8948 -88.2221 9.97528 11.708 -40.5581 0.420957 0.000575564 0.35866 -2.18643 5.68659 52.4596 -69.6849 -28.7482 80.0265 2.65583 -5.15327 28.0504 0.58676 0.000331095 0.0646654 -58.8923 -4.94152 97.0918 -3.85666 43.8232 -14.501 1.39928 -18.63 -1.5364 3.88265 -8.19073 -0.789672 -28.5075 -1.71505 84.3874 2.44027 17.8818 11.2574 6.51887 18.1689 -3.10429 1.6745 -4.94035 -9.08004 
322.547 94.6151 202.308 66.5821 -38.2476 -18.4707 -70.1915 0 88.8779 84.3475 68.9217 -2.93477 3.42455 17.5908 3.49235 -151.651 18.1852 169.369 -142.39 56.3914 -178.614 -0.468506 -17.2916 -31.7646 -80.8274 38.4364 -87.0119 8.97529 10.8344 -39.7132 0.420957 0.000575564 0.35866 -2.1224 5.82433 50.6102 -70.5911 -29.3519 81.3751 4.62127 -7.33805 32.7215 0.58676 0.000331095 0.0646654 -57.8778 -5.11215 96.3222 -3.03035 42.6463 -7.73769 1.16365 -19.2492 -1.5903 3.90277 -4.48788 -12.9859 -29.9139 -0.514821 85.2273 1.30913 24.7981 19.2842 6.10589 11.102 -2.08321 2.24282 -14.4037 -13.4084 
319.439 95.8138 199.148 66.1328 -39.5923 -19.3424 -70.1915 0 88.8779 85.6225 69.5887 -3.90037 2.85032 18.3068 3.28397 -151.528 18.1042 170.98 -142.969 56.3477 -178.013 -0.529587 -17.422 -32.2499 -79.3484 39.2033 -85.6399 6.20119 7.86332 -38.2777 0.420957 0.000575564 0.35866 -2.17123 6.01897 50.2477 -70.011 -28.6155 83.484 6.56944 -9.10212 36.2911 0.58676 0.000331095 0.0646654 -56.0159 -6.40983 95.4667 -3.53915 40.6458 -14.6564 0.850521 -13.1982 -1.15072 4.46515 -11.1484 9.09182 -30.0102 0.921004 91.2463 3.14813 34.8082 18.5861 2.79546 6.81252 -0.90456 1.9998 -24.0285 -19.0229 
316.602 96.9442 196.427 66.0868 -40.4884 -19.1151 -70.1915 0 88.8779 85.0812 69.9866 -2.10313 3.10537 18.8781 2.49329 -150.266 17.7971 171.569 -143.099 56.1078 -177.497 -0.481516 -17.3896 -31.6441 -80.0678 41.3408 -82.5865 6.91126 9.0285 -37.4426 0.420957 0.000575564 0.35866 -2.19763 6.22817 49.4907 -69.4169 -28.4433 85.6649 8.18354 -10.1597 39.3495 0.58676 0.000331095 0.0646654 -54.865 -6.24251 95.5884 -2.89544 37.7594 -12.7551 0.245709 -11.2709 -0.990987 3.46986 -9.12655 7.46838 -30.7744 1.55119 91.7207 4.04888 46.3783 15.1425 -0.739004 4.27675 -0.0592434 1.75484 -28.5093 -19.3189 
313.591 97.9949 193.767 65.9967 -40.6091 -18.0945 -70.1915 0 88.8779 84.2781 70.2427 -0.383031 3.11917 18.9073 3.30538 -150.954 17.6147 172.001 -143.411 55.6919 -178.89 -0.32638 -16.6864 -31.5722 -76.5311 43.2128 -82.5929 11.4207 16.393 -35.1825 0.420957 0.000575564 0.35866 -2.06395 6.05049 48.4201 -70.1202 -28.3655 87.2031 10.2747 -11.5492 42.2486 0.58676 0.000331095 0.0646654 -53.6373 -5.15738 95.8724 -2.34184 34.7813 -12.1724 0.957397 -7.87725 -0.768577 3.81741 -9.44715 5.81548 -32.8529 1.53218 90.902 5.50707 55.9166 12.0222 1.04845 0.408353 -0.0271534 2.29738 -17.7944 -20.4616 
310.833 98.4384 191.472 66.4634 -40.3729 -17.0076 -70.1915 0 88.8779 82.8432 70.5211 1.74322 2.86126 19.1345 3.66486 -150.162 18.1579 172.853 -145.314 56.5394 -177.494 -0.371621 -16.8904 -31.5989 -70.9349 45 -83.909 8.92035 14.221 -32.2247 0.420957 0.000575564 0.35866 -2.0633 6.2309 47.4554 -71.4827 -28.6064 87.5994 11.6281 -12.0367 44.6762 0.58676 0.000331095 0.0646654 -52.399 -4.15968 96.5407 -2.11999 33.1689 -14.4453 0.112538 -7.22026 -0.66617 2.46156 -7.72778 9.34172 -36.4093 0.969574 89.5136 6.32848 62.6163 4.12361 -1.49059 1.15885 0.264793 2.5054 -22.3343 -7.59197 
